<svg width="131.382324" height="50.000000" viewBox="0 0 131.382 50" fill="none" xmlns="http://www.w3.org/2000/svg" xmlns:xlink="http://www.w3.org/1999/xlink">
	<desc>
			Created with Pixso.
	</desc>
	<defs>
		<clipPath id="clip7_3840">
			<rect id="profile 1" width="21.363007" height="20.000000" transform="translate(16.021973 15.000000)" fill="white" fill-opacity="0"/>
		</clipPath>
	</defs>
	<path id="Sign In Account" d="M69.92 17.35L70.8 16.76C71.01 17.12 71.23 17.44 71.45 17.72C71.69 18 71.95 18.21 72.23 18.37Q72.26 18.38 72.29 18.4Q72.7 18.6 73.21 18.6Q73.83 18.6 74.24 18.31Q74.31 18.26 74.38 18.2C74.67 17.93 74.82 17.59 74.82 17.17Q74.82 16.56 74.53 16.2Q74.25 15.83 73.78 15.61C73.48 15.46 73.15 15.32 72.8 15.2C72.58 15.12 72.33 15.02 72.05 14.9Q71.63 14.7 71.26 14.42C71.01 14.22 70.8 13.97 70.63 13.69C70.48 13.4 70.4 13.05 70.4 12.64Q70.4 12.15 70.57 11.74Q70.64 11.58 70.74 11.43Q70.84 11.27 70.96 11.13Q71.26 10.8 71.67 10.59Q72.27 10.28 73.04 10.28Q73.78 10.28 74.33 10.57C74.7 10.75 75.01 10.99 75.27 11.28C75.53 11.57 75.74 11.87 75.89 12.19L74.94 12.74C74.82 12.51 74.68 12.29 74.51 12.08C74.33 11.86 74.12 11.68 73.87 11.54C73.63 11.4 73.33 11.34 72.97 11.34Q72.23 11.34 71.89 11.7Q71.67 11.94 71.59 12.21Q71.56 12.35 71.56 12.49C71.56 12.74 71.62 12.98 71.75 13.19C71.88 13.4 72.1 13.6 72.4 13.79C72.71 13.97 73.13 14.16 73.66 14.34C73.91 14.43 74.16 14.54 74.43 14.68C74.7 14.82 74.95 14.99 75.17 15.21Q75.18 15.22 75.19 15.23Q75.53 15.53 75.74 15.98C75.89 16.27 75.96 16.63 75.96 17.04C75.96 17.44 75.89 17.8 75.73 18.12C75.58 18.44 75.37 18.72 75.11 18.94C74.85 19.17 74.55 19.34 74.21 19.46C73.88 19.58 73.53 19.64 73.17 19.64Q72.64 19.64 72.17 19.48Q71.97 19.42 71.79 19.33Q71.51 19.19 71.27 19Q70.95 18.78 70.69 18.49Q70.22 17.95 69.92 17.35ZM77.73 11.57C77.59 11.42 77.52 11.25 77.52 11.06Q77.52 10.9 77.58 10.77Q77.63 10.65 77.73 10.56C77.88 10.42 78.05 10.35 78.24 10.35C78.44 10.35 78.61 10.42 78.74 10.56Q78.84 10.65 78.89 10.77Q78.95 10.9 78.95 11.06C78.95 11.25 78.88 11.42 78.74 11.57C78.61 11.71 78.44 11.78 78.24 11.78C78.05 11.78 77.88 11.71 77.73 11.57ZM99.11 19.51L99.11 10.41L100.21 10.41L100.21 19.51L99.11 19.51ZM80.78 18.19C80.51 17.72 80.38 17.16 80.38 16.52Q80.38 15.55 80.78 14.86Q81.05 14.4 81.43 14.08Q81.63 13.91 81.86 13.78C82.31 13.53 82.81 13.4 83.34 13.4C83.85 13.4 84.28 13.53 84.66 13.78C84.95 13.98 85.19 14.24 85.38 14.58L85.38 13.53L86.42 13.53L86.42 19.38Q86.42 20.41 85.99 21.1Q85.67 21.63 85.2 21.96Q85.05 22.07 84.89 22.15C84.44 22.39 83.96 22.5 83.46 22.5Q82.59 22.5 81.91 22.18Q81.48 21.97 81.18 21.64Q81.01 21.47 80.87 21.25Q80.8 21.14 80.73 21.01Q80.5 20.51 80.5 19.9L81.55 19.9C81.55 20.19 81.63 20.45 81.78 20.7C81.94 20.95 82.16 21.15 82.45 21.29C82.73 21.45 83.07 21.53 83.46 21.53C83.76 21.53 84.06 21.45 84.36 21.31C84.65 21.16 84.89 20.93 85.08 20.6C85.28 20.29 85.38 19.89 85.38 19.38L85.38 18.47C85.19 18.8 84.95 19.07 84.66 19.27C84.28 19.52 83.85 19.64 83.34 19.64C82.81 19.64 82.31 19.52 81.86 19.27Q81.63 19.14 81.43 18.97Q81.05 18.65 80.78 18.19ZM85.38 16.52C85.38 16.18 85.33 15.87 85.21 15.61C85.1 15.34 84.95 15.12 84.76 14.94C84.58 14.75 84.37 14.62 84.15 14.52C83.92 14.43 83.7 14.38 83.47 14.38C83.11 14.38 82.77 14.46 82.46 14.62C82.15 14.79 81.9 15.03 81.7 15.35C81.52 15.67 81.43 16.06 81.43 16.52C81.43 16.98 81.52 17.37 81.7 17.69C81.9 18.01 82.15 18.26 82.46 18.42C82.77 18.59 83.11 18.67 83.47 18.67C83.78 18.67 84.08 18.59 84.37 18.42C84.66 18.26 84.91 18.01 85.1 17.69C85.29 17.37 85.38 16.98 85.38 16.52ZM92.15 19.51L92.15 15.87C92.15 15.38 92.04 15.01 91.82 14.75Q91.76 14.68 91.69 14.62Q91.38 14.38 90.87 14.38C90.57 14.38 90.3 14.44 90.07 14.57C89.84 14.69 89.66 14.87 89.53 15.09C89.41 15.32 89.35 15.58 89.35 15.87L89.35 19.51L88.31 19.51L88.31 13.53L89.35 13.53L89.35 14.47C89.55 14.1 89.8 13.84 90.09 13.66C90.4 13.49 90.74 13.4 91.13 13.4C91.77 13.4 92.26 13.61 92.63 14.04C93 14.46 93.19 15.02 93.19 15.74L93.19 19.51L92.15 19.51ZM106.06 19.51L106.06 15.87Q106.06 15.13 105.74 14.75Q105.67 14.68 105.6 14.62Q105.29 14.38 104.79 14.38C104.49 14.38 104.22 14.44 103.98 14.57C103.76 14.69 103.58 14.87 103.45 15.09C103.33 15.32 103.27 15.58 103.27 15.87L103.27 19.51L102.23 19.51L102.23 13.53L103.27 13.53L103.27 14.47C103.47 14.1 103.71 13.84 104.01 13.66C104.31 13.49 104.66 13.4 105.05 13.4C105.68 13.4 106.18 13.61 106.54 14.04C106.92 14.46 107.1 15.02 107.1 15.74L107.1 19.51L106.06 19.51ZM77.72 19.51L77.72 13.53L78.76 13.53L78.76 19.51L77.72 19.51ZM76.46 37.03L74.94 33.48L73.42 37.03L76.46 37.03ZM77 38.63L78.29 41.51L80.42 41.51L74.94 29.69L69.47 41.51L71.6 41.51L72.88 38.63L77 38.63ZM123.74 34.15L123.74 31.59L125.45 31.59L125.45 34.15L126.68 34.15L126.68 35.67L125.45 35.67L125.45 41.51L123.74 41.51L123.74 35.67L122.51 35.67L122.51 34.15L123.74 34.15ZM83.03 36.62C82.83 36.97 82.73 37.37 82.73 37.83C82.73 38.3 82.83 38.71 83.03 39.06C83.23 39.41 83.51 39.68 83.85 39.88C84.2 40.08 84.59 40.18 85.02 40.18C85.37 40.18 85.7 40.13 86.02 40.02C86.34 39.92 86.63 39.77 86.87 39.58C87.12 39.38 87.3 39.17 87.42 38.94L87.42 40.84C87.16 41.1 86.81 41.3 86.38 41.45C85.94 41.6 85.46 41.67 84.94 41.67Q83.91 41.67 83.06 41.28Q82.97 41.24 82.89 41.19C82.29 40.86 81.82 40.41 81.46 39.83C81.12 39.25 80.95 38.58 80.95 37.83C80.95 37.08 81.12 36.41 81.46 35.83Q81.72 35.41 82.06 35.08Q82.43 34.74 82.89 34.49C83.5 34.16 84.18 33.99 84.94 33.99Q85.72 33.99 86.38 34.22C86.81 34.37 87.16 34.57 87.42 34.82L87.42 36.73C87.3 36.48 87.11 36.27 86.86 36.09C86.61 35.9 86.33 35.75 86.01 35.64C85.69 35.53 85.36 35.48 85.02 35.48C84.59 35.48 84.2 35.58 83.85 35.78C83.51 35.99 83.23 36.26 83.03 36.62ZM90.78 36.62C90.58 36.97 90.48 37.37 90.48 37.83C90.48 38.3 90.58 38.71 90.78 39.06C90.98 39.41 91.26 39.68 91.6 39.88C91.95 40.08 92.34 40.18 92.77 40.18C93.12 40.18 93.45 40.13 93.77 40.02C94.09 39.92 94.38 39.77 94.62 39.58C94.87 39.38 95.05 39.17 95.17 38.94L95.17 40.84C94.91 41.1 94.56 41.3 94.13 41.45C93.69 41.6 93.21 41.67 92.69 41.67Q91.66 41.67 90.81 41.28Q90.72 41.24 90.64 41.19C90.04 40.86 89.57 40.41 89.21 39.83C88.87 39.25 88.7 38.58 88.7 37.83C88.7 37.08 88.87 36.41 89.21 35.83Q89.47 35.41 89.81 35.08Q90.18 34.74 90.64 34.49C91.25 34.16 91.93 33.99 92.69 33.99Q93.47 33.99 94.13 34.22C94.56 34.37 94.91 34.57 95.17 34.82L95.17 36.73C95.05 36.48 94.86 36.27 94.61 36.09C94.36 35.9 94.08 35.75 93.76 35.64C93.44 35.53 93.11 35.48 92.77 35.48C92.34 35.48 91.95 35.58 91.6 35.78C91.26 35.99 90.98 36.26 90.78 36.62ZM97.03 39.83C96.69 39.25 96.52 38.58 96.52 37.83C96.52 37.08 96.69 36.41 97.03 35.83Q97.28 35.41 97.63 35.08Q97.99 34.74 98.45 34.49C99.05 34.16 99.73 33.99 100.48 33.99C101.24 33.99 101.91 34.16 102.5 34.49C103.1 34.81 103.57 35.26 103.92 35.83C104.28 36.41 104.45 37.08 104.45 37.83C104.45 38.58 104.28 39.25 103.92 39.83C103.57 40.41 103.1 40.86 102.5 41.19C101.91 41.51 101.24 41.67 100.48 41.67Q99.41 41.67 98.55 41.24Q98.5 41.22 98.45 41.19C97.85 40.86 97.38 40.41 97.03 39.83ZM119.55 41.51L119.55 37.03C119.55 36.49 119.43 36.08 119.21 35.8C118.99 35.52 118.64 35.38 118.17 35.38C117.85 35.38 117.57 35.45 117.32 35.59C117.08 35.72 116.89 35.91 116.75 36.17C116.61 36.41 116.54 36.7 116.54 37.03L116.54 41.51L114.81 41.51L114.81 34.15L116.54 34.15L116.54 35.29C116.77 34.85 117.07 34.53 117.43 34.31C117.81 34.1 118.25 33.99 118.76 33.99Q119.74 33.99 120.36 34.47Q120.53 34.6 120.67 34.76C121.1 35.26 121.32 35.96 121.32 36.84L121.32 41.51L119.55 41.51ZM107.87 34.15L107.87 38.63C107.87 39.16 107.98 39.56 108.2 39.85C108.43 40.14 108.77 40.28 109.23 40.28C109.56 40.28 109.85 40.22 110.09 40.09C110.34 39.95 110.53 39.76 110.67 39.51C110.81 39.26 110.88 38.96 110.88 38.63L110.88 34.15L112.6 34.15L112.6 41.51L110.88 41.51L110.88 40.38C110.64 40.8 110.34 41.13 109.96 41.35C109.6 41.57 109.16 41.67 108.65 41.67C107.83 41.67 107.2 41.42 106.75 40.9Q106.74 40.89 106.73 40.88Q106.09 40.11 106.09 38.82L106.09 34.15L107.87 34.15ZM98.58 36.62C98.39 36.97 98.29 37.37 98.29 37.83C98.29 38.29 98.39 38.7 98.58 39.05C98.77 39.39 99.03 39.66 99.36 39.86C99.69 40.06 100.07 40.15 100.48 40.15C100.89 40.15 101.26 40.06 101.59 39.86C101.93 39.66 102.2 39.39 102.39 39.05C102.58 38.7 102.68 38.29 102.68 37.83C102.68 37.37 102.58 36.97 102.39 36.62C102.2 36.26 101.93 35.99 101.59 35.8C101.26 35.61 100.89 35.51 100.48 35.51C100.07 35.51 99.69 35.61 99.36 35.8C99.03 35.99 98.77 36.26 98.58 36.62Z" fill="#FFFFFF" fill-opacity="1.000000" fill-rule="evenodd"/>
	<rect id="Rectangle 5" x="0.500000" y="0.500000" rx="6.000000" width="52.407513" height="49.000000" stroke="#FFFFFF" stroke-opacity="0.100000" stroke-width="1.000000"/>
	<rect id="profile 1" width="21.363007" height="20.000000" transform="translate(16.021973 15.000000)" fill="#FFFFFF" fill-opacity="0"/>
	<g clip-path="url(#clip7_3840)">
		<path id="Vector" d="M26.7 24.16C27.58 24.16 28.44 23.92 29.17 23.46C29.9 23 30.47 22.35 30.81 21.59C31.15 20.83 31.24 19.99 31.06 19.18C30.89 18.37 30.47 17.63 29.85 17.05C29.22 16.47 28.43 16.07 27.57 15.91C26.7 15.75 25.81 15.83 25 16.15C24.18 16.46 23.49 17 23 17.68C22.51 18.37 22.25 19.17 22.25 20C22.25 21.1 22.72 22.16 23.55 22.94C24.39 23.72 25.52 24.16 26.7 24.16ZM26.7 17.5C27.23 17.5 27.74 17.64 28.18 17.92C28.62 18.19 28.96 18.58 29.17 19.04C29.37 19.5 29.42 20 29.32 20.48C29.21 20.97 28.96 21.41 28.59 21.76C28.21 22.11 27.74 22.35 27.22 22.45C26.7 22.54 26.16 22.49 25.68 22.3C25.19 22.12 24.77 21.79 24.48 21.38C24.18 20.97 24.03 20.49 24.03 20C24.03 19.33 24.31 18.7 24.81 18.23C25.31 17.76 25.99 17.5 26.7 17.5ZM18.69 33.33L18.69 30C18.69 28.89 19.16 27.83 19.99 27.05C20.83 26.27 21.96 25.83 23.14 25.83L30.26 25.83C31.44 25.83 32.57 26.27 33.4 27.05C34.24 27.83 34.71 28.89 34.71 30L34.71 33.33C34.71 33.55 34.62 33.76 34.45 33.92C34.28 34.07 34.06 34.16 33.82 34.16C33.58 34.16 33.36 34.07 33.19 33.92C33.02 33.76 32.93 33.55 32.93 33.33L32.93 30C32.93 29.33 32.65 28.7 32.15 28.23C31.65 27.76 30.97 27.5 30.26 27.5L23.14 27.5C22.43 27.5 21.75 27.76 21.25 28.23C20.75 28.7 20.47 29.33 20.47 30L20.47 33.33C20.47 33.55 20.37 33.76 20.21 33.92C20.04 34.07 19.81 34.16 19.58 34.16C19.34 34.16 19.12 34.07 18.95 33.92C18.78 33.76 18.69 33.55 18.69 33.33Z" fill="#FFFFFF" fill-opacity="1.000000" fill-rule="nonzero"/>
	</g>
</svg>
