<svg width="273.690918" height="50.000000" viewBox="0 0 273.691 50" fill="none" xmlns="http://www.w3.org/2000/svg" xmlns:xlink="http://www.w3.org/1999/xlink">
	<desc>
			Created with Pixso.
	</desc>
	<defs>
		<clipPath id="clip7_3829">
			<rect id="shopping-cart 1" width="20.128668" height="20.000000" transform="translate(15.096680 15.000000)" fill="white" fill-opacity="0"/>
		</clipPath>
	</defs>
	<path id="$200.99 Total" d="M68.78 10.31L68.78 8.88L69.74 8.88L69.74 10.32Q70.17 10.39 70.52 10.58C70.89 10.77 71.21 11.02 71.46 11.32C71.72 11.62 71.91 11.92 72.03 12.23L71.13 12.83C71 12.58 70.86 12.34 70.69 12.12C70.53 11.88 70.33 11.7 70.09 11.56C69.86 11.41 69.57 11.34 69.24 11.34Q68.72 11.34 68.38 11.48Q68.12 11.59 67.97 11.79Q67.93 11.84 67.9 11.89C67.79 12.08 67.74 12.3 67.74 12.57C67.74 12.9 67.84 13.17 68.04 13.39C68.24 13.6 68.5 13.78 68.82 13.94Q69.3 14.16 69.85 14.36C70.08 14.45 70.33 14.56 70.6 14.7Q71 14.91 71.35 15.22C71.59 15.42 71.78 15.67 71.93 15.98C72.07 16.27 72.15 16.63 72.15 17.04Q72.15 17.78 71.84 18.37Q71.83 18.39 71.82 18.41Q71.71 18.63 71.55 18.81Q71.28 19.11 70.9 19.32C70.58 19.49 70.19 19.59 69.74 19.63L69.74 20.97L68.78 20.97L68.78 19.59Q68.57 19.55 68.37 19.48Q68.18 19.42 68 19.33C67.58 19.11 67.2 18.82 66.88 18.45Q66.41 17.89 66.13 17.13L67.06 16.57Q67.34 17.2 67.68 17.65Q68.01 18.11 68.44 18.36C68.74 18.52 69.07 18.6 69.44 18.6Q69.96 18.6 70.3 18.43C70.54 18.31 70.71 18.14 70.82 17.93C70.94 17.7 71 17.44 71 17.13Q71 16.66 70.79 16.32Q70.74 16.24 70.68 16.17Q70.37 15.79 69.87 15.55C69.55 15.38 69.22 15.24 68.87 15.12C68.65 15.04 68.4 14.94 68.13 14.81C67.87 14.68 67.62 14.51 67.39 14.31C67.16 14.1 66.96 13.85 66.8 13.56Q66.58 13.12 66.58 12.49Q66.58 12.13 66.7 11.81Q66.79 11.58 66.93 11.37Q67.01 11.26 67.11 11.15Q67.42 10.8 67.88 10.58Q67.9 10.57 67.93 10.56Q68.32 10.37 68.78 10.31ZM79.64 19.51L73.21 19.51L77.52 14.92C77.72 14.71 77.89 14.49 78.02 14.29C78.17 14.07 78.28 13.85 78.35 13.64C78.43 13.41 78.47 13.18 78.47 12.93Q78.47 12.85 78.46 12.77Q78.43 12.56 78.35 12.35C78.27 12.16 78.15 11.99 78 11.83C77.85 11.67 77.67 11.55 77.45 11.45C77.24 11.36 76.99 11.31 76.71 11.31Q76.17 11.31 75.76 11.54Q75.73 11.56 75.7 11.58C75.42 11.76 75.21 12.01 75.06 12.35C74.91 12.68 74.84 13.07 74.84 13.53L73.73 13.53Q73.73 12.56 74.08 11.83C74.32 11.34 74.66 10.95 75.1 10.69C75.55 10.41 76.09 10.27 76.71 10.27Q77.47 10.27 78.01 10.53C78.37 10.69 78.67 10.91 78.91 11.18C79.14 11.44 79.32 11.72 79.43 12.02C79.54 12.33 79.6 12.62 79.6 12.9Q79.6 12.95 79.59 13.01Q79.57 13.65 79.26 14.29C79.03 14.75 78.74 15.16 78.39 15.52L75.49 18.47L79.64 18.47L79.64 19.51ZM81.3 17.38C81.02 16.68 80.88 15.87 80.88 14.96Q80.88 13.6 81.3 12.54C81.59 11.84 81.98 11.29 82.49 10.89C83 10.49 83.59 10.28 84.26 10.28C84.92 10.28 85.51 10.49 86.01 10.89Q86.78 11.49 87.21 12.54C87.49 13.25 87.64 14.05 87.64 14.96Q87.64 16.33 87.21 17.38Q86.78 18.43 86.01 19.04C85.51 19.44 84.92 19.64 84.26 19.64Q83.69 19.64 83.19 19.45Q82.82 19.3 82.49 19.04Q81.73 18.43 81.3 17.38ZM89.1 17.38Q88.67 16.33 88.67 14.96Q88.67 13.6 89.1 12.54C89.39 11.84 89.78 11.29 90.28 10.89C90.79 10.49 91.38 10.28 92.05 10.28C92.72 10.28 93.3 10.49 93.81 10.89Q94.57 11.49 95 12.54C95.29 13.25 95.43 14.05 95.43 14.96Q95.43 16.33 95 17.38Q94.57 18.43 93.81 19.04C93.3 19.44 92.72 19.64 92.05 19.64Q91.48 19.64 90.99 19.45Q90.61 19.3 90.28 19.04C89.78 18.64 89.39 18.08 89.1 17.38ZM106.11 15.29L103.04 19.51L101.65 19.51L104.2 16.15C104.12 16.19 104.05 16.23 103.96 16.25C103.74 16.32 103.48 16.35 103.18 16.35C102.81 16.35 102.46 16.28 102.13 16.13C101.81 15.99 101.52 15.78 101.27 15.51Q101.23 15.47 101.2 15.42Q100.89 15.05 100.7 14.57C100.56 14.21 100.49 13.82 100.49 13.4C100.49 12.78 100.63 12.23 100.9 11.76C101.17 11.3 101.55 10.93 102.01 10.67C102.48 10.41 103.01 10.28 103.59 10.28Q104.39 10.28 105.03 10.6Q105.1 10.64 105.16 10.67C105.63 10.93 106 11.3 106.27 11.76C106.54 12.23 106.68 12.78 106.68 13.4C106.68 13.78 106.63 14.12 106.53 14.44C106.42 14.76 106.28 15.04 106.11 15.29ZM113.6 15.29L110.53 19.51L109.14 19.51L111.69 16.15C111.61 16.19 111.54 16.23 111.45 16.25C111.23 16.32 110.97 16.35 110.67 16.35C110.3 16.35 109.95 16.28 109.62 16.13C109.3 15.99 109.01 15.78 108.76 15.51Q108.72 15.47 108.69 15.42Q108.38 15.05 108.19 14.57C108.05 14.21 107.98 13.82 107.98 13.4C107.98 12.78 108.12 12.23 108.39 11.76C108.66 11.3 109.04 10.93 109.5 10.67C109.97 10.41 110.5 10.28 111.08 10.28Q111.88 10.28 112.52 10.6Q112.59 10.64 112.65 10.67C113.12 10.93 113.49 11.3 113.76 11.76C114.03 12.23 114.17 12.78 114.17 13.4C114.17 13.78 114.12 14.12 114.02 14.44C113.91 14.76 113.77 15.04 113.6 15.29ZM105.36 14.51C105.54 14.19 105.63 13.82 105.63 13.4Q105.63 12.79 105.36 12.32Q105.36 12.32 105.36 12.31C105.18 11.99 104.94 11.74 104.63 11.56C104.32 11.37 103.98 11.28 103.59 11.28C103.2 11.28 102.85 11.37 102.53 11.56C102.23 11.74 101.99 11.99 101.81 12.31C101.63 12.62 101.55 12.99 101.55 13.4C101.55 13.82 101.63 14.19 101.81 14.51C101.99 14.83 102.23 15.08 102.53 15.27C102.85 15.46 103.2 15.55 103.59 15.55C103.98 15.55 104.32 15.46 104.63 15.27C104.94 15.08 105.18 14.83 105.36 14.51ZM112.85 14.51C113.03 14.19 113.12 13.82 113.12 13.4Q113.12 12.79 112.85 12.32Q112.85 12.32 112.85 12.31C112.67 11.99 112.43 11.74 112.12 11.56C111.81 11.37 111.47 11.28 111.08 11.28C110.69 11.28 110.34 11.37 110.02 11.56C109.72 11.74 109.48 11.99 109.3 12.31C109.12 12.62 109.04 12.99 109.04 13.4C109.04 13.82 109.12 14.19 109.3 14.51C109.48 14.83 109.72 15.08 110.02 15.27C110.34 15.46 110.69 15.55 111.08 15.55C111.47 15.55 111.81 15.46 112.12 15.27C112.43 15.08 112.67 14.83 112.85 14.51ZM82.14 13.51Q81.98 14.17 81.98 14.96Q81.98 15.76 82.14 16.43Q82.29 17.09 82.59 17.59C82.79 17.91 83.03 18.16 83.31 18.34C83.59 18.52 83.91 18.6 84.26 18.6Q84.66 18.6 85 18.45Q85.11 18.4 85.2 18.34C85.48 18.16 85.72 17.91 85.92 17.59Q86.22 17.09 86.37 16.43C86.48 15.98 86.53 15.49 86.53 14.96C86.53 14.43 86.48 13.95 86.37 13.51C86.27 13.06 86.12 12.67 85.92 12.35C85.72 12.02 85.48 11.77 85.2 11.6C84.93 11.41 84.61 11.32 84.26 11.32C83.91 11.32 83.59 11.41 83.31 11.6C83.03 11.77 82.79 12.02 82.59 12.35C82.39 12.67 82.24 13.06 82.14 13.51ZM89.93 13.51Q89.78 14.17 89.78 14.96Q89.78 15.76 89.93 16.43Q90.09 17.09 90.39 17.59C90.59 17.91 90.82 18.16 91.1 18.34C91.39 18.52 91.7 18.6 92.05 18.6Q92.46 18.6 92.8 18.45Q92.9 18.4 93 18.34C93.28 18.16 93.51 17.91 93.71 17.59Q94.01 17.09 94.17 16.43C94.27 15.98 94.33 15.49 94.33 14.96C94.33 14.43 94.27 13.95 94.17 13.51C94.07 13.06 93.91 12.67 93.71 12.35C93.51 12.02 93.28 11.77 93 11.6C92.72 11.41 92.41 11.32 92.05 11.32C91.7 11.32 91.39 11.41 91.1 11.6C90.82 11.77 90.59 12.02 90.39 12.35C90.19 12.67 90.04 13.06 89.93 13.51ZM97.39 19.5C97.25 19.35 97.18 19.18 97.18 18.99C97.18 18.79 97.25 18.62 97.39 18.49C97.54 18.35 97.7 18.28 97.9 18.28C98.09 18.28 98.26 18.35 98.4 18.49C98.54 18.62 98.61 18.79 98.61 18.99C98.61 19.18 98.54 19.35 98.4 19.5C98.26 19.64 98.09 19.71 97.9 19.71C97.7 19.71 97.54 19.64 97.39 19.5ZM94.41 41.51L94.41 29.03L96.14 29.03L96.14 41.51L94.41 41.51ZM68.49 32.06L65.54 32.06L65.54 30.31L73.35 30.31L73.35 32.06L70.39 32.06L70.39 41.51L68.49 41.51L68.49 32.06ZM82.21 34.15L82.21 31.59L83.92 31.59L83.92 34.15L85.15 34.15L85.15 35.67L83.92 35.67L83.92 41.51L82.21 41.51L82.21 35.67L80.98 35.67L80.98 34.15L82.21 34.15ZM87.37 35.8C87.16 35.91 87 36 86.89 36.07L86.19 34.86C86.52 34.65 86.94 34.46 87.47 34.26C88 34.07 88.61 33.98 89.29 33.98C89.9 33.98 90.43 34.07 90.89 34.25Q91.59 34.52 91.99 35.02Q91.99 35.03 91.99 35.03C92.26 35.36 92.39 35.77 92.39 36.26L92.39 41.51L90.7 41.51L90.7 40.53C90.65 40.6 90.6 40.68 90.54 40.74C90.27 41.05 89.93 41.29 89.51 41.45C89.11 41.6 88.69 41.67 88.27 41.67C87.81 41.67 87.38 41.58 86.99 41.4Q86.64 41.24 86.37 40.99Q86.19 40.82 86.04 40.6C85.81 40.25 85.69 39.82 85.69 39.32C85.69 38.61 85.94 38.04 86.44 37.62C86.94 37.2 87.65 36.98 88.57 36.98Q89.31 36.98 89.83 37.14C90.18 37.25 90.47 37.37 90.7 37.51L90.7 36.6C90.7 36.37 90.65 36.17 90.57 36.02Q90.52 35.92 90.45 35.84Q90.36 35.73 90.25 35.66C90.11 35.56 89.95 35.49 89.75 35.45Q89.47 35.38 89.13 35.38C88.79 35.38 88.46 35.43 88.15 35.51C87.85 35.59 87.59 35.68 87.37 35.8ZM90.7 38.48C90.53 38.4 90.35 38.33 90.17 38.28C89.8 38.17 89.4 38.12 88.99 38.12C88.62 38.12 88.33 38.17 88.11 38.26C87.88 38.35 87.71 38.47 87.59 38.63C87.49 38.79 87.43 38.99 87.43 39.22C87.43 39.47 87.49 39.68 87.61 39.86C87.73 40.04 87.89 40.16 88.09 40.25C88.3 40.33 88.54 40.38 88.81 40.38C89.15 40.38 89.46 40.31 89.74 40.17C90.03 40.03 90.25 39.83 90.43 39.56C90.61 39.28 90.7 38.96 90.7 38.6L90.7 38.48ZM72.94 39.83C72.6 39.25 72.43 38.58 72.43 37.83C72.43 37.08 72.6 36.41 72.94 35.83Q73.19 35.41 73.54 35.08Q73.9 34.74 74.36 34.49C74.96 34.16 75.64 33.99 76.39 33.99Q77.45 33.99 78.29 34.42Q78.35 34.46 78.41 34.49Q78.87 34.74 79.23 35.08Q79.58 35.41 79.83 35.83C80.19 36.41 80.36 37.08 80.36 37.83C80.36 38.58 80.19 39.25 79.83 39.83C79.48 40.41 79.01 40.86 78.41 41.19C77.82 41.51 77.15 41.67 76.39 41.67Q75.32 41.67 74.46 41.24Q74.41 41.22 74.36 41.19C73.76 40.86 73.29 40.41 72.94 39.83ZM74.49 36.62C74.3 36.97 74.2 37.37 74.2 37.83C74.2 38.29 74.3 38.7 74.49 39.05C74.68 39.39 74.94 39.66 75.27 39.86C75.6 40.06 75.98 40.15 76.39 40.15C76.8 40.15 77.17 40.06 77.5 39.86C77.84 39.66 78.11 39.39 78.3 39.05C78.49 38.7 78.59 38.29 78.59 37.83C78.59 37.37 78.49 36.97 78.3 36.62C78.11 36.26 77.84 35.99 77.5 35.8C77.17 35.61 76.8 35.51 76.39 35.51C75.98 35.51 75.6 35.61 75.27 35.8C74.94 35.99 74.68 36.26 74.49 36.62Z" fill="#FFFFFF" fill-opacity="1.000000" fill-rule="evenodd"/>
	<g opacity="0.050000">
		<rect id="Rectangle 5" rx="6.000000" width="50.321671" height="50.000000" fill="#FFFFFF" fill-opacity="1.000000"/>
	</g>
	<rect id="shopping-cart 1" width="20.128668" height="20.000000" transform="translate(15.096680 15.000000)" fill="#FFFFFF" fill-opacity="0"/>
	<g clip-path="url(#clip7_3829)">
		<path id="Vector" d="M30.19 32.5C30.19 31.57 30.94 30.83 31.87 30.83C32.79 30.83 33.54 31.57 33.54 32.5C33.54 33.41 32.79 34.16 31.87 34.16C30.94 34.16 30.19 33.41 30.19 32.5Z" fill="#FFFFFF" fill-opacity="1.000000" fill-rule="evenodd"/>
		<path id="Vector" d="M20.96 32.5C20.96 31.57 21.71 30.83 22.64 30.83C23.57 30.83 24.32 31.57 24.32 32.5C24.32 33.41 23.57 34.16 22.64 34.16C21.71 34.16 20.96 33.41 20.96 32.5Z" fill="#FFFFFF" fill-opacity="1.000000" fill-rule="evenodd"/>
		<path id="Vector" d="M15.09 15.83C15.09 15.37 15.47 15 15.93 15L19.29 15C19.68 15 20.03 15.28 20.11 15.66L20.81 19.16L34.38 19.16C34.63 19.16 34.87 19.27 35.03 19.46C35.19 19.66 35.25 19.91 35.21 20.15L33.86 27.15C33.75 27.72 33.43 28.24 32.97 28.61C32.51 28.98 31.94 29.17 31.36 29.16L23.22 29.16C22.63 29.17 22.06 28.98 21.6 28.61C21.14 28.24 20.83 27.72 20.71 27.15L19.31 20.19C19.3 20.17 19.3 20.15 19.3 20.12L18.6 16.66L15.93 16.66C15.47 16.66 15.09 16.29 15.09 15.83L15.09 15.83ZM21.15 20.83L22.36 26.82C22.39 27.02 22.5 27.19 22.65 27.31C22.81 27.43 23 27.5 23.19 27.5L23.21 27.5L31.36 27.5L31.38 27.5C31.58 27.5 31.77 27.43 31.92 27.31C32.07 27.19 32.18 27.02 32.22 26.83L33.37 20.83L21.15 20.83Z" fill="#FFFFFF" fill-opacity="1.000000" fill-rule="evenodd"/>
	</g>
	<ellipse id="Ellipse 1" cx="44.786621" cy="7.500000" rx="7.548251" ry="7.500000" fill="#F5C34B" fill-opacity="1.000000"/>
	<path id="2" d="M46.88 11L42.74 11L42.74 10.11L44.81 8.19C45.34 7.68 45.62 7.36 45.62 6.9C45.62 6.39 45.24 6.07 44.73 6.07C44.2 6.07 43.85 6.41 43.85 6.97L42.68 6.97C42.68 5.83 43.52 5.1 44.74 5.1C45.98 5.1 46.81 5.81 46.81 6.82C46.81 7.48 46.49 8.03 45.29 9.12L44.44 9.95L44.44 9.99L46.88 9.99L46.88 11Z" fill="#0B1E40" fill-opacity="1.000000" fill-rule="evenodd"/>
</svg>
