<svg width="140.401855" height="50.000000" viewBox="0 0 140.402 50" fill="none" xmlns="http://www.w3.org/2000/svg" xmlns:xlink="http://www.w3.org/1999/xlink">
	<desc>
			Created with Pixso.
	</desc>
	<defs>
		<clipPath id="clip7_3845">
			<rect id="heart 1" width="24.131544" height="22.000000" transform="translate(15.356934 15.000000)" fill="white" fill-opacity="0"/>
		</clipPath>
	</defs>
	<path id="Wishlist My Items" d="M94.8 14.49L94.8 9.37L93.76 9.37L93.76 19.51L94.8 19.51L94.8 15.87C94.8 15.59 94.86 15.33 94.98 15.11C95.11 14.88 95.29 14.7 95.52 14.57C95.75 14.44 96.02 14.38 96.32 14.38Q96.85 14.38 97.16 14.64Q97.22 14.69 97.27 14.75C97.49 15.01 97.6 15.38 97.6 15.87L97.6 19.51L98.64 19.51L98.64 15.74Q98.64 14.96 98.38 14.44C98.21 14.1 97.97 13.84 97.66 13.66C97.36 13.49 97 13.4 96.58 13.4C96.17 13.4 95.8 13.51 95.48 13.73C95.2 13.92 94.97 14.17 94.8 14.49ZM101.63 9.37L100.59 9.37L100.59 19.51L101.63 19.51L101.63 9.37ZM82.8 10.41L80.43 17.11L77.73 9.96L75.08 17.11L72.66 10.41L71.42 10.41L75 19.97L77.73 12.9L80.46 19.97L84.03 10.41L82.8 10.41ZM85.35 10.56C85.21 10.69 85.14 10.86 85.14 11.06C85.14 11.25 85.21 11.42 85.35 11.57C85.5 11.71 85.66 11.78 85.86 11.78C86.05 11.78 86.22 11.71 86.36 11.57C86.5 11.42 86.57 11.25 86.57 11.06Q86.57 10.9 86.51 10.77Q86.46 10.65 86.36 10.56C86.22 10.42 86.05 10.35 85.86 10.35C85.66 10.35 85.5 10.42 85.35 10.56ZM103.8 10.56C103.66 10.69 103.59 10.86 103.59 11.06C103.59 11.25 103.66 11.42 103.8 11.57C103.94 11.71 104.11 11.78 104.3 11.78C104.5 11.78 104.67 11.71 104.81 11.57C104.95 11.42 105.02 11.25 105.02 11.06C105.02 10.86 104.95 10.69 104.81 10.56C104.67 10.42 104.5 10.35 104.3 10.35C104.11 10.35 103.94 10.42 103.8 10.56ZM113.31 11.45L112.27 11.45L112.27 13.53L111.3 13.53L111.3 14.51L112.27 14.51L112.27 19.51L113.31 19.51L113.31 14.51L114.29 14.51L114.29 13.53L113.31 13.53L113.31 11.45ZM89.18 18.19C89.02 18.03 88.89 17.86 88.76 17.68L87.95 18.19C88.06 18.42 88.22 18.65 88.44 18.88C88.66 19.1 88.94 19.29 89.26 19.43C89.58 19.57 89.94 19.64 90.34 19.64C90.95 19.64 91.45 19.47 91.82 19.12C92.2 18.78 92.39 18.34 92.39 17.82C92.39 17.47 92.3 17.18 92.13 16.95C91.97 16.73 91.74 16.54 91.46 16.38C91.17 16.21 90.85 16.06 90.51 15.92C90.3 15.84 90.1 15.75 89.91 15.65Q89.62 15.51 89.44 15.33C89.32 15.21 89.26 15.07 89.26 14.91C89.26 14.71 89.34 14.56 89.49 14.47C89.65 14.37 89.83 14.33 90.05 14.33C90.36 14.33 90.64 14.4 90.88 14.55C91.13 14.69 91.34 14.88 91.51 15.11L92.34 14.57C92.22 14.35 92.05 14.15 91.83 13.97C91.62 13.8 91.36 13.66 91.08 13.56Q90.66 13.4 90.18 13.4C89.86 13.4 89.55 13.46 89.25 13.57C88.95 13.68 88.71 13.86 88.52 14.09C88.34 14.33 88.24 14.62 88.24 14.98Q88.24 15.45 88.46 15.78Q88.48 15.82 88.5 15.85C88.69 16.07 88.91 16.26 89.17 16.41C89.44 16.54 89.7 16.67 89.96 16.77C90.19 16.86 90.42 16.95 90.62 17.06C90.83 17.15 91 17.27 91.13 17.42C91.27 17.56 91.34 17.73 91.34 17.94C91.34 18.17 91.25 18.36 91.08 18.5C90.91 18.63 90.68 18.69 90.39 18.69C90.15 18.69 89.92 18.65 89.71 18.56C89.51 18.47 89.34 18.34 89.18 18.19ZM107.63 18.19C107.47 18.03 107.33 17.86 107.21 17.68L106.39 18.19C106.5 18.42 106.67 18.65 106.89 18.88C107.11 19.1 107.38 19.29 107.71 19.43C108.03 19.57 108.39 19.64 108.78 19.64C109.4 19.64 109.89 19.47 110.27 19.12Q110.54 18.87 110.69 18.56Q110.84 18.22 110.84 17.82Q110.84 17.3 110.59 16.96Q110.58 16.96 110.58 16.95C110.41 16.73 110.19 16.54 109.9 16.38C109.62 16.21 109.3 16.06 108.95 15.92C108.75 15.84 108.55 15.75 108.36 15.65C108.16 15.56 108.01 15.45 107.89 15.33C107.77 15.21 107.71 15.07 107.71 14.91C107.71 14.71 107.78 14.56 107.94 14.47Q108.17 14.33 108.5 14.33C108.81 14.33 109.09 14.4 109.33 14.55C109.58 14.69 109.79 14.88 109.95 15.11L110.79 14.57C110.66 14.35 110.5 14.15 110.28 13.97C110.06 13.8 109.81 13.66 109.53 13.56Q109.11 13.4 108.63 13.4Q108.42 13.4 108.22 13.43Q107.95 13.47 107.69 13.57C107.4 13.68 107.15 13.86 106.96 14.09C106.78 14.33 106.69 14.62 106.69 14.98C106.69 15.32 106.78 15.61 106.95 15.85C107.13 16.07 107.35 16.26 107.61 16.41C107.88 16.54 108.15 16.67 108.41 16.77C108.64 16.86 108.86 16.95 109.07 17.06C109.28 17.15 109.45 17.27 109.58 17.42C109.72 17.56 109.79 17.73 109.79 17.94C109.79 18.17 109.7 18.36 109.53 18.5C109.36 18.63 109.13 18.69 108.84 18.69C108.59 18.69 108.37 18.65 108.16 18.56C107.96 18.47 107.78 18.34 107.63 18.19ZM86.38 13.53L85.34 13.53L85.34 19.51L86.38 19.51L86.38 13.53ZM104.82 13.53L103.78 13.53L103.78 19.51L104.82 19.51L104.82 13.53ZM73.85 41.51L74.62 34.7L78.03 40.47L81.44 34.7L82.22 41.51L84.17 41.51L82.64 29.75L78.03 37.35L73.44 29.75L71.9 41.51L73.85 41.51ZM100.26 30.31L98.35 30.31L98.35 41.51L100.26 41.51L100.26 30.31ZM104.54 31.59L102.82 31.59L102.82 34.15L101.59 34.15L101.59 35.67L102.82 35.67L102.82 41.51L104.54 41.51L104.54 35.67L105.77 35.67L105.77 34.15L104.54 34.15L104.54 31.59ZM106.86 39.85C107.17 40.42 107.61 40.87 108.18 41.19C108.75 41.51 109.41 41.67 110.16 41.67Q111.44 41.67 112.35 41.18C112.96 40.85 113.46 40.35 113.84 39.69L112.35 39.08C112.12 39.48 111.82 39.77 111.47 39.96Q110.94 40.25 110.24 40.25C109.79 40.25 109.41 40.15 109.09 39.96C108.78 39.77 108.54 39.49 108.38 39.13C108.27 38.87 108.2 38.57 108.17 38.23L113.89 38.23C113.9 38.19 113.9 38.12 113.9 38.02Q113.92 37.88 113.92 37.75C113.92 36.96 113.77 36.29 113.47 35.74C113.18 35.17 112.77 34.74 112.22 34.44C111.68 34.14 111.02 33.99 110.24 33.99C109.46 33.99 108.78 34.15 108.21 34.47C107.63 34.78 107.18 35.22 106.86 35.8C106.55 36.38 106.4 37.05 106.4 37.83C106.4 38.6 106.55 39.27 106.86 39.85ZM108.21 37.05L112.04 37.05C112.02 36.73 111.94 36.46 111.81 36.22C111.66 35.93 111.44 35.7 111.17 35.54Q110.77 35.3 110.22 35.3C109.79 35.3 109.41 35.4 109.1 35.59C108.79 35.78 108.56 36.06 108.4 36.42C108.32 36.61 108.26 36.82 108.21 37.05ZM126.1 41.51L126.1 36.84C126.1 36.23 126.01 35.72 125.84 35.29C125.67 34.86 125.41 34.54 125.06 34.33C124.72 34.1 124.28 33.99 123.76 33.99C123.26 33.99 122.81 34.1 122.42 34.33C122.03 34.55 121.71 34.88 121.46 35.3C121.3 34.88 121.04 34.55 120.67 34.33C120.32 34.1 119.87 33.99 119.33 33.99C118.86 33.99 118.45 34.1 118.1 34.31C117.76 34.52 117.48 34.82 117.26 35.22L117.26 34.15L115.57 34.15L115.57 41.51L117.26 41.51L117.26 37.03C117.26 36.68 117.32 36.38 117.44 36.14C117.56 35.89 117.72 35.7 117.94 35.58C118.16 35.45 118.42 35.38 118.72 35.38C119.15 35.38 119.46 35.52 119.65 35.8C119.85 36.07 119.95 36.48 119.95 37.03L119.95 41.51L121.68 41.51L121.68 37.03C121.68 36.68 121.74 36.38 121.86 36.14C121.98 35.89 122.16 35.7 122.37 35.58C122.59 35.45 122.85 35.38 123.14 35.38C123.56 35.38 123.87 35.52 124.06 35.8C124.27 36.07 124.37 36.48 124.37 37.03L124.37 41.51L126.1 41.51ZM129.34 39.77C129.11 39.58 128.87 39.35 128.64 39.1L127.63 40.1C127.84 40.38 128.11 40.65 128.42 40.9Q128.89 41.27 129.52 41.51C129.95 41.66 130.41 41.74 130.91 41.74Q132.07 41.74 132.77 41.17Q132.8 41.14 132.83 41.11C133.31 40.69 133.55 40.13 133.55 39.43C133.55 38.98 133.44 38.62 133.23 38.34C133.03 38.07 132.76 37.83 132.42 37.64C132.07 37.45 131.7 37.27 131.3 37.11C131 37 130.72 36.88 130.48 36.78C130.24 36.67 130.05 36.55 129.9 36.42C129.76 36.29 129.7 36.13 129.7 35.96C129.7 35.76 129.78 35.6 129.94 35.5Q130.17 35.34 130.54 35.34C130.91 35.34 131.26 35.43 131.6 35.61C131.94 35.79 132.23 36.02 132.48 36.31L133.44 35.29C133.24 35.04 132.99 34.82 132.7 34.63C132.42 34.44 132.09 34.29 131.73 34.17C131.38 34.05 131 33.99 130.59 33.99Q129.95 33.99 129.39 34.19Q129.36 34.21 129.33 34.22C128.94 34.36 128.63 34.57 128.4 34.87C128.17 35.17 128.06 35.54 128.06 35.99Q128.06 36.65 128.37 37.08C128.58 37.37 128.85 37.6 129.17 37.78C129.5 37.96 129.83 38.1 130.16 38.23C130.49 38.35 130.78 38.47 131.02 38.58C131.27 38.69 131.46 38.82 131.6 38.98C131.74 39.13 131.81 39.32 131.81 39.53C131.81 39.77 131.72 39.97 131.53 40.1C131.36 40.24 131.12 40.31 130.82 40.31C130.57 40.31 130.32 40.27 130.08 40.18C129.83 40.09 129.59 39.95 129.34 39.77ZM87.58 45.03L92.38 34.15L90.52 34.15L88.61 38.94L86.68 34.15L84.7 34.15L87.66 40.65L85.74 45.03L87.58 45.03Z" fill="#FFFFFF" fill-opacity="1.000000" fill-rule="evenodd"/>
	<rect id="Rectangle 5" x="0.500000" y="0.500000" rx="6.000000" width="53.844418" height="49.000000" stroke="#FFFFFF" stroke-opacity="0.100000" stroke-width="1.000000"/>
	<rect id="heart 1" width="24.131544" height="22.000000" transform="translate(15.356934 15.000000)" fill="#FFFFFF" fill-opacity="0"/>
	<g clip-path="url(#clip7_3845)">
		<path id="Vector" d="M31.39 18.55C34.24 18.55 36.54 20.68 36.54 23.67C36.54 29.65 29.52 33.06 27.18 34.35C24.84 33.06 17.81 29.65 17.81 23.67C17.81 20.68 20.15 18.55 22.96 18.55C24.71 18.55 26.24 19.4 27.18 20.26C28.11 19.4 29.65 18.55 31.39 18.55ZM28.05 31.87C28.88 31.4 29.62 30.93 30.32 30.42C33.11 28.4 34.67 26.19 34.67 23.67C34.67 21.66 33.23 20.26 31.39 20.26C30.38 20.26 29.29 20.74 28.5 21.46L27.18 22.67L25.85 21.46C25.06 20.74 23.97 20.26 22.96 20.26C21.15 20.26 19.68 21.67 19.68 23.67C19.68 26.19 21.25 28.4 24.04 30.42C24.73 30.93 25.48 31.4 26.3 31.87C26.58 32.03 26.86 32.19 27.18 32.36C27.5 32.19 27.77 32.03 28.05 31.87Z" fill="#FFFFFF" fill-opacity="1.000000" fill-rule="nonzero"/>
	</g>
</svg>
